<svg width="91" height="22" viewBox="0 0 800 194" fill="none" xmlns="http://www.w3.org/2000/svg">
<path d="M203.733 17.8V145.733H284.167V129H220.433V89.3333H273V73.4333H220.433V34.5667H279.533V17.8333L203.733 17.8ZM547.167 50.9333C535.309 50.9584 523.864 55.2945 514.967 63.1333V53.6667H498.6V145.767H514.933C515 129.867 514.933 113.933 515 98C515.435 89.7545 519.01 81.9886 524.993 76.2975C530.975 70.6065 538.91 67.4227 547.167 67.4V50.9333ZM686.5 51.1667C684.733 51.1667 683 51.2667 681.233 51.5C670.733 52.5333 661.033 57.3333 656.133 64.0667C652.748 68.4958 651.09 74.0049 651.467 79.5667C651.7 86.2333 653.667 91.4667 659.233 96.1C665.367 101 673.233 102.767 681.133 104.733C691.5 106.967 695.333 107.9 699.333 110.933C702 113.267 703.767 115.167 703.867 119.933C703.867 128.267 696.5 132.333 689.867 133.6C684.323 134.729 678.572 134.249 673.292 132.218C668.012 130.186 663.424 126.687 660.067 122.133L647.7 131.733C658.7 144.467 673.6 148.567 684.033 148.4C702.033 148.067 713.733 141.167 718.333 130.6C720.533 125.5 720.433 120.3 720.433 117.933C720.466 114.422 719.678 110.951 718.133 107.797C716.588 104.643 714.328 101.893 711.533 99.7667C703.933 93.8667 692.1 92.1666 690.333 91.7C675.767 89.1 668.4 85.1667 667.1 80.3333C665.667 73.9333 670.5 68.6667 677 66.6333C682.124 64.9263 687.659 64.9015 692.798 66.5626C697.937 68.2236 702.411 71.4836 705.567 75.8667L717.8 67.6333C714.257 62.6086 709.573 58.4961 704.131 55.6335C698.69 52.771 692.648 51.2401 686.5 51.1667ZM766.067 51.1667C764.333 51.1667 762.567 51.2667 760.833 51.5C750.3 52.5333 740.6 57.3333 735.733 64.0667C732.348 68.4958 730.689 74.0049 731.067 79.5667C731.267 86.2333 733.233 91.4667 738.833 96.1C744.933 101 752.833 102.767 760.733 104.733C771.067 106.967 774.933 107.9 778.9 110.933C781.6 113.267 783.367 115.167 783.433 119.933C783.467 128.267 776.067 132.333 769.433 133.6C763.89 134.729 758.139 134.249 752.859 132.218C747.579 130.186 742.99 126.687 739.633 122.133L727.267 131.733C738.267 144.467 753.167 148.567 763.6 148.4C781.633 148.067 793.3 141.167 797.933 130.6C800.1 125.5 800 120.3 800 117.933C800.032 114.422 799.245 110.951 797.7 107.797C796.155 104.643 793.895 101.893 791.1 99.7667C783.533 93.8667 771.667 92.1666 769.9 91.7C755.333 89.1 747.967 85.1667 746.7 80.3333C745.267 73.9333 750.067 68.6667 756.6 66.6333C761.724 64.9263 767.259 64.9015 772.398 66.5626C777.537 68.2236 782.011 71.4836 785.167 75.8667L797.4 67.6333C793.852 62.6061 789.162 58.4922 783.715 55.6296C778.268 52.7671 772.22 51.2376 766.067 51.1667ZM438.067 51.2333C427.145 51.2328 416.539 54.9038 407.955 61.6565C399.37 68.4092 393.305 77.8516 390.733 88.4667C389.819 92.0277 389.36 95.6902 389.367 99.3667V193.8H405.733V133.367C411.4 139.367 421.967 147.367 437.733 148.5C445.644 148.586 453.455 146.724 460.477 143.08C467.499 139.435 473.517 134.119 478 127.6C483.099 120.309 486.097 111.758 486.667 102.88C487.237 94.0017 485.358 85.1374 481.234 77.2543C477.111 69.3712 470.901 62.7722 463.282 58.1777C455.664 53.5831 446.93 51.1694 438.033 51.2L438.067 51.2333ZM598.2 51.2333C590.063 51.3163 582.08 53.4549 574.991 57.4504C567.903 61.4459 561.94 67.1687 557.656 74.0867C553.372 81.0047 550.907 88.8934 550.489 97.0197C550.071 105.146 551.715 113.246 555.267 120.567C563.767 138.233 582.3 149.567 602.333 148.333C608.809 147.906 615.132 146.181 620.927 143.26C626.722 140.34 631.871 136.284 636.067 131.333L623.967 121.633C619.573 126.853 613.638 130.546 607.014 132.181C600.39 133.816 593.418 133.309 587.1 130.733C582.18 128.751 577.798 125.635 574.31 121.638C570.823 117.641 568.33 112.877 567.033 107.733H641.667L641.733 93.5C641.497 82.1444 636.795 71.3396 628.646 63.4277C620.497 55.5158 609.558 51.1344 598.2 51.2333ZM291.533 53.9L326.933 99.8L291.533 145.733H310.9L336.867 112.067L362.8 145.733H382.167L346.767 99.8L382.167 53.8667H362.8L336.867 87.5333L310.9 53.8667L291.533 53.9ZM438.467 66.7333C442.735 66.7753 446.952 67.6707 450.869 69.367C454.786 71.0633 458.324 73.5262 461.275 76.6105C464.226 79.6949 466.529 83.3385 468.051 87.3267C469.572 91.315 470.28 95.5673 470.133 99.8333C470.474 107.998 467.687 115.986 462.342 122.167C456.997 128.348 449.495 132.259 441.367 133.1C433.609 133.887 425.83 131.82 419.486 127.286C413.142 122.752 408.668 116.061 406.9 108.467C404.433 95.7333 406.9 83.6 417.133 74.5C423.055 69.388 430.645 66.6248 438.467 66.7333ZM598.133 67.2333C605.01 67.2432 611.632 69.8354 616.688 74.4963C621.744 79.1572 624.865 85.5469 625.433 92.4H566.767C568.351 85.268 572.318 78.8887 578.013 74.3138C583.709 69.7388 590.828 67.2415 598.133 67.2333Z" fill="#E43225"/>
<path d="M172.2 0.199952C172.011 0.199756 171.829 0.272432 171.693 0.40283C171.556 0.533228 171.475 0.711291 171.467 0.899948C171.467 14.0999 160.8 24.7999 147.7 24.7999C147.605 24.7998 147.511 24.819 147.424 24.8562C147.337 24.8935 147.258 24.948 147.193 25.0166C147.127 25.0852 147.077 25.1664 147.043 25.2552C147.01 25.344 146.995 25.4386 147 25.5333C147 25.9333 147.333 26.2333 147.7 26.2333C160.833 26.2333 171.467 36.9666 171.467 50.1666C171.467 50.5666 171.8 50.8666 172.2 50.8666C172.567 50.8666 172.9 50.5333 172.9 50.1666C172.917 43.8625 175.425 37.8207 179.876 33.3568C184.328 28.8928 190.363 26.3684 196.667 26.3333C196.857 26.3333 197.039 26.2578 197.173 26.1234C197.308 25.989 197.383 25.8067 197.383 25.6166C197.383 25.4265 197.308 25.2443 197.173 25.1099C197.039 24.9755 196.857 24.9 196.667 24.9C190.343 24.8735 184.288 22.3381 179.831 17.8507C175.375 13.3633 172.882 7.29073 172.9 0.966642V0.899948C172.901 0.80753 172.884 0.715781 172.85 0.629963C172.816 0.544146 172.765 0.46598 172.7 0.399969C172.565 0.272305 172.386 0.200796 172.2 0.199952ZM49.1 17.7333L0 145.733H16L27.8333 115H87.2333L99.0333 145.733H115.067L66 17.7333H49.1ZM124.567 17.7999V145.733H140.933V17.7999H124.567ZM57.5333 37.5333L80.8 98.2H34.2667L57.5333 37.5333ZM164.033 54.4V145.733H180.367V54.4H164.033Z" fill="#F7971D"/>
</svg>
