<svg width="40" height="40" viewBox="0 0 50 50" fill="none" xmlns="http://www.w3.org/2000/svg">
<path d="M44.5939 36.5938C42.9924 36.5938 41.0861 37 39.6877 38C39.2892 38.3008 39.3127 38.6875 39.8127 38.6875C41.4142 38.4883 44.9885 38.0078 45.6877 38.9062C46.2892 39.707 45.008 43.0859 44.4064 44.6875C44.2072 45.1875 44.6017 45.3008 45.0002 45C47.6994 42.6992 48.4064 38.0078 47.9064 37.4062C47.6057 36.9062 46.1955 36.5938 44.5939 36.5938ZM2.18769 37.5C1.88691 37.5 1.6955 38.0117 2.09394 38.3125C8.09394 43.7109 16.008 47 24.9064 47C31.2072 47 38.4924 45.0117 43.5939 41.3125C44.3947 40.7109 43.7072 39.6953 42.9064 40.0938C37.2072 42.4922 31.1017 43.6875 25.5002 43.6875C17.1994 43.6875 9.18769 41.3867 2.68769 37.6875C2.48847 37.4883 2.28925 37.5 2.18769 37.5Z" fill="#FF9900"/>
<path d="M25.3125 3C19.2109 3 12.4922 5.3125 11.0938 12.8125C10.8945 13.6133 11.5 13.9922 12 14.0938L18.1875 14.6875C18.7891 14.6875 19.207 14.1016 19.4063 13.5C19.9063 10.8984 22.1016 9.59375 24.5 9.59375C25.8008 9.59375 27.293 10.1133 28.0938 11.3125C28.9922 12.6133 28.8125 14.4062 28.8125 15.9062V16.8125C25.1133 17.2109 20.3125 17.5 16.8125 19C12.8125 20.6992 10 24.207 10 29.4062C10 36.0078 14.1992 39.3125 19.5 39.3125C24 39.3125 26.5 38.1953 30 34.5938C31.1992 36.293 31.5859 37.1055 33.6875 38.9062C34.1875 39.207 34.7891 39.0859 35.1875 38.6875V38.8125C36.4883 37.7109 38.793 35.6016 40.0938 34.5C40.5938 34.1992 40.4922 33.5 40.0938 33C38.8945 31.3984 37.6875 30.0938 37.6875 27.0938V17.1875C37.6875 12.9883 38.0078 9.08594 34.9062 6.1875C32.4062 3.78906 28.4141 3 25.3125 3ZM27 22H28.6875V23.4062C28.6875 25.8047 28.793 27.8945 27.5938 30.0938C26.5938 31.8945 24.9883 33 23.1875 33C20.7891 33 19.3125 31.207 19.3125 28.4062C19.3125 23.707 23 22.3008 27 22Z" fill="black"/>
</svg>
