<?xml version="1.0" encoding="UTF-8" standalone="no"?>
<!-- Created with Inkscape (http://www.inkscape.org/) -->

<svg
   width="80"
   height="21"
   viewBox="0 0 80 20.999999"
   version="1.1"
   id="svg1"
   inkscape:version="1.3.2 (091e20e, 2023-11-25, custom)"
   sodipodi:docname="find-it.svg"
   xmlns:inkscape="http://www.inkscape.org/namespaces/inkscape"
   xmlns:sodipodi="http://sodipodi.sourceforge.net/DTD/sodipodi-0.dtd"
   xmlns="http://www.w3.org/2000/svg"
   xmlns:svg="http://www.w3.org/2000/svg">
  <sodipodi:namedview
     id="namedview1"
     pagecolor="#ffffff"
     bordercolor="#666666"
     borderopacity="1.0"
     inkscape:showpageshadow="2"
     inkscape:pageopacity="0.0"
     inkscape:pagecheckerboard="0"
     inkscape:deskcolor="#d1d1d1"
     inkscape:document-units="mm"
     inkscape:zoom="2.7666446"
     inkscape:cx="116.02502"
     inkscape:cy="55.120922"
     inkscape:window-width="1366"
     inkscape:window-height="745"
     inkscape:window-x="-8"
     inkscape:window-y="-8"
     inkscape:window-maximized="1"
     inkscape:current-layer="layer1" />
  <defs
     id="defs1">
    <rect
       x="59.295212"
       y="184.01962"
       width="507.07629"
       height="357.81592"
       id="rect1" />
  </defs>
  <g
     inkscape:label="Capa 1"
     inkscape:groupmode="layer"
     id="layer1"
     transform="translate(-47.709834,-61.888218)">
    <path
       style="font-size:40px;line-height:1.25;font-family:'Funky PERSONAL USE ONLY!';-inkscape-font-specification:'Funky PERSONAL USE ONLY!';letter-spacing:0px;word-spacing:0px;white-space:pre"
       d="m 59.685547,217.8978 v 0.41015 c 0.01953,0.42969 0.09766,0.80078 0.253906,1.09375 0.15625,0.29297 0.371094,0.54688 0.625,0.74219 0.253906,0.19531 0.566406,0.33203 0.917969,0.42969 0.332031,0.0977 0.683594,0.17578 1.054687,0.21484 0.253907,0.0391 0.507813,0.0586 0.761719,0.0586 0.488281,0 0.957031,-0.0781 1.367188,-0.21485 0.371093,-0.13672 0.507812,-0.37109 0.390625,-0.68359 -0.175782,-0.60547 -0.195313,-1.21094 -0.03906,-1.77735 0,-0.0586 0.01953,-0.15625 0.03906,-0.2539 0.175781,-1.23047 0.410156,-2.42188 0.664062,-3.61328 0.253906,-1.19141 0.546875,-2.36328 0.878906,-3.55469 0.03906,-0.21484 0.15625,-0.33203 0.371094,-0.39063 0.136719,-0.0195 0.273438,-0.0586 0.410156,-0.0977 0.136719,-0.0391 0.273438,-0.0781 0.410157,-0.0977 l 1.640625,-0.39062 c 0.136718,-0.0195 0.273437,-0.0586 0.410156,-0.0977 0.136719,-0.0391 0.273437,-0.0781 0.410156,-0.0977 0.07813,-0.0195 0.175781,-0.0586 0.273438,-0.0781 l 0.820312,-0.17578 c 0.273438,-0.0586 0.546875,-0.13672 0.820313,-0.19531 0.273437,-0.0586 0.546875,-0.13672 0.820312,-0.23438 0.332031,-0.11719 0.546875,-0.35156 0.605469,-0.72266 0.03906,-0.17578 0.03906,-0.35156 0.01953,-0.54687 -0.01953,-0.25391 -0.07813,-0.50781 -0.15625,-0.80078 -0.07813,-0.27344 -0.175781,-0.54688 -0.3125,-0.82031 -0.136719,-0.25391 -0.273437,-0.50782 -0.449219,-0.74219 -0.175781,-0.23438 -0.390625,-0.42969 -0.605468,-0.56641 -0.195313,-0.0977 -0.390625,-0.15625 -0.585938,-0.13672 -0.371094,0.0195 -0.761719,0.0586 -1.132812,0.0781 -0.371094,0.0195 -0.761719,0.0586 -1.132813,0.0781 -0.09766,0.0195 -0.175781,0.0195 -0.253906,0.0195 -0.09766,0.0195 -0.175781,0.0195 -0.253906,0.0195 -0.175782,0.0195 -0.273438,0.0195 -0.292969,-0.0195 -0.03906,-0.0391 -0.01953,-0.13671 0.03906,-0.29296 0.214844,-0.70313 0.449219,-1.40625 0.703125,-2.08985 0.234375,-0.68359 0.488282,-1.36719 0.742188,-2.07031 l 0.292969,-0.80078 c 0.05859,-0.21485 0.195312,-0.3125 0.410156,-0.33203 1.289062,-0.23438 2.578125,-0.42969 3.867187,-0.58594 0.05859,-0.0195 0.136719,-0.0195 0.214844,-0.0391 0.07813,0 0.15625,0 0.214844,-0.0195 0.800781,-0.0586 1.542969,-0.21485 2.265625,-0.42969 0.410156,-0.11719 0.625,-0.3711 0.664062,-0.78125 0.117188,-1.21094 -0.214843,-2.26563 -0.976562,-3.14453 -0.214844,-0.27344 -0.488281,-0.39063 -0.859375,-0.3711 -0.273438,0.0195 -0.546875,0.0195 -0.800781,0.0195 -0.273438,0.0195 -0.546875,0.0195 -0.820313,0.0195 -0.566406,0 -1.132812,0 -1.699219,0.0195 -0.566406,0.0195 -1.152343,0.0586 -1.71875,0.11718 -0.15625,0.0195 -0.3125,0.0391 -0.449218,0.0195 -0.15625,0 -0.3125,-0.0195 -0.449219,-0.0391 -0.507813,-0.11718 -0.976563,-0.15625 -1.425781,-0.0977 -0.449219,0.0195 -0.820313,0.17578 -1.132813,0.48828 -0.175781,0.17578 -0.351562,0.27344 -0.527344,0.3125 -0.9375,0.21484 -1.835937,0.52734 -2.675781,0.95703 -0.566406,0.27344 -0.917969,0.70312 -1.054687,1.28906 -0.234375,1.36719 0.07813,2.59766 0.917968,3.67188 0.07813,0.0977 0.117188,0.17578 0.136719,0.27343 0.01953,0.0586 0,0.15625 -0.03906,0.27344 -0.332032,0.78125 -0.664063,1.5625 -0.957032,2.34375 -0.3125,0.78125 -0.605468,1.58203 -0.878906,2.38281 -0.117187,0.41016 -0.371094,0.72266 -0.742187,0.9375 -0.761719,0.3711 -1.113282,0.9961 -1.054688,1.83594 0.03906,0.3711 0.15625,0.70313 0.351563,1.01563 0.117187,0.17578 0.15625,0.37109 0.09766,0.54687 -0.351563,1.26953 -0.664063,2.53906 -0.917969,3.82813 -0.253906,1.28906 -0.429687,2.59765 -0.488281,3.90625 z m 14.160156,-0.89844 c -0.01953,0.27344 -0.03906,0.52734 -0.03906,0.74219 0,0.21484 0.01953,0.42968 0.07813,0.60547 0.09766,0.33203 0.292968,0.68359 0.625,1.01562 0.957031,0.91797 2.089843,1.40625 3.398437,1.44531 0.3125,0.0195 0.605469,-0.0391 0.859375,-0.19531 0.136719,-0.0781 0.253906,-0.19531 0.3125,-0.33203 0.05859,-0.13672 0.03906,-0.27344 -0.03906,-0.44922 -0.09766,-0.21484 -0.136719,-0.37109 -0.117188,-0.50781 0,-0.0977 0,-0.17578 0.01953,-0.27344 0.01953,-0.0781 0.03906,-0.15625 0.05859,-0.23437 v -0.0586 l 0.175781,-0.74219 c 0.996094,-3.67187 2.109375,-7.28515 3.339844,-10.82031 1.230469,-3.53515 2.558594,-7.05078 3.964844,-10.58594 0.214844,-0.5664 0.117187,-1.05468 -0.292969,-1.44531 -0.976562,-0.91797 -2.128906,-1.34765 -3.4375,-1.28906 -0.390625,0.0195 -0.703125,0.21484 -0.9375,0.58594 -0.253906,0.41015 -0.488281,0.83984 -0.703125,1.25 -0.214844,0.42968 -0.429687,0.85937 -0.644531,1.30859 -2.1875,4.60938 -3.984375,9.375 -5.390625,14.29688 -0.566406,1.85546 -0.976563,3.75 -1.230469,5.68359 z m 17.617188,-9.86328 c 0.01953,0.21484 0.03906,0.44922 0.05859,0.68359 0.01953,0.23438 0.03906,0.46875 0.05859,0.6836 0.01953,0.0391 0.01953,0.0781 0.01953,0.11718 0,0.0586 0,0.0977 0,0.13672 l 0.05859,0.52735 c 0.07813,0.78125 0.175781,1.58203 0.292969,2.42187 0.09766,0.83984 0.253906,1.66016 0.429687,2.48047 0.175782,0.83984 0.410157,1.64062 0.683594,2.42187 0.253906,0.80079 0.585938,1.54297 0.957031,2.2461 0.332032,0.5664 0.78125,0.97656 1.367188,1.1914 0.585937,0.21485 1.191406,0.33204 1.816406,0.33204 0.585938,0 1.171875,-0.0977 1.738281,-0.3125 0.664063,-0.23438 1.054688,-0.72266 1.152341,-1.44532 0.0195,-0.17578 0.0586,-0.33203 0.0781,-0.50781 0.0195,-0.15625 0.0586,-0.33203 0.0781,-0.50781 0,-0.0586 0,-0.11719 0.0195,-0.15625 0.17579,-0.95703 0.41016,-1.91406 0.74219,-2.91016 0.0391,-0.11719 0.0781,-0.23437 0.11719,-0.37109 0.0391,-0.11719 0.0781,-0.23438 0.11719,-0.3711 0.0976,-0.33203 0.19531,-0.68359 0.29297,-1.01562 0.0977,-0.33203 0.19531,-0.68359 0.29296,-1.01563 0.52735,-1.93359 1.11329,-3.80859 1.75782,-5.66406 0.37109,-1.07422 0.72265,-2.14844 1.05468,-3.22265 0.17579,-0.52735 0.3711,-1.05469 0.54688,-1.58204 0.17578,-0.52734 0.35156,-1.05468 0.52734,-1.60156 v -0.0586 c 0.27344,-0.74219 0.52735,-1.48438 0.78125,-2.22656 0.25391,-0.74219 0.48828,-1.48438 0.70313,-2.2461 0.15625,-0.5664 0,-0.99609 -0.44922,-1.28906 -0.80078,-0.56641 -1.67969,-0.85938 -2.59766,-0.85938 -0.15625,0 -0.3125,0 -0.46875,0.0195 -0.17578,0.0195 -0.33203,0.0391 -0.46875,0.0781 -0.13672,0.0586 -0.27343,0.11719 -0.39062,0.21484 -0.11719,0.0977 -0.21485,0.21485 -0.29297,0.39063 -0.52734,1.11328 -1.01563,2.24609 -1.48438,3.35937 -0.48828,1.13282 -0.9375,2.26563 -1.386714,3.41797 -0.605469,1.48438 -1.152344,2.96875 -1.640625,4.45313 -0.507813,1.5039 -0.976563,3.00781 -1.386719,4.55078 v 0.0586 l -0.01953,0.0586 c -0.01953,0.0586 -0.03906,0.0781 -0.07813,0.0977 0,-0.0195 0,-0.0195 -0.01953,-0.0391 0,-0.0391 0,-0.0586 -0.01953,-0.0781 -0.136719,-1.07422 -0.253906,-2.14844 -0.332031,-3.22266 -0.09766,-1.05469 -0.175781,-2.12891 -0.234375,-3.20313 -0.01953,-0.29296 -0.03906,-0.60546 -0.05859,-0.91796 -0.01953,-0.29297 -0.01953,-0.60547 -0.03906,-0.89844 -0.01953,-0.87891 -0.03906,-1.73828 -0.03906,-2.61719 -0.01953,-0.85937 -0.01953,-1.71875 -0.03906,-2.59766 -0.01953,-0.64453 -0.332032,-1.11328 -0.898438,-1.38671 -0.761719,-0.3711 -1.542969,-0.50782 -2.34375,-0.42969 -0.195312,0.0195 -0.371094,0.0586 -0.546875,0.15625 -0.175781,0.0977 -0.3125,0.19531 -0.449219,0.33203 -0.136718,0.13672 -0.273437,0.29297 -0.371093,0.46875 -0.09766,0.17578 -0.195313,0.35156 -0.253907,0.52734 -0.527343,1.05469 -1.035156,2.12891 -1.484375,3.20313 -0.449218,1.09375 -0.898437,2.1875 -1.308593,3.30078 -0.683594,1.73828 -1.328125,3.49609 -1.914063,5.23437 -0.585937,1.73829 -1.132812,3.51563 -1.621094,5.33204 -0.546875,1.89453 -0.898437,3.82812 -1.054687,5.80078 -0.07813,1.15234 0.410156,1.93359 1.445312,2.38281 0.507813,0.23437 1.035157,0.39062 1.601563,0.46875 0.195312,0.0391 0.390625,0.0586 0.585937,0.0586 0.3125,0 0.605469,-0.0391 0.859375,-0.13672 0.703125,-0.2539 1.015625,-0.74218 0.917969,-1.48437 -0.01953,-0.11719 -0.05859,-0.23438 -0.09766,-0.35156 -0.05859,-0.11719 -0.117188,-0.23438 -0.175781,-0.35157 -0.117188,-0.17578 -0.15625,-0.39062 -0.117188,-0.60546 0.351563,-1.95313 0.761719,-3.88672 1.25,-5.82032 0.488281,-1.93359 1.035156,-3.82812 1.679688,-5.70312 z m 20.527339,-7.8711 c 0,0.15625 -0.0391,0.29297 -0.11718,0.39063 0,0.0195 -0.0195,0.0586 -0.0391,0.0781 -0.58593,1.23047 -1.17187,2.53907 -1.75781,3.96485 -0.60547,1.42578 -1.15234,2.87109 -1.64062,4.35547 -0.50782,1.48437 -0.9375,2.96875 -1.3086,4.43359 -0.37109,1.46484 -0.60547,2.89063 -0.74218,4.23828 -0.13672,0.70313 -0.0391,1.38672 0.27343,2.03125 0.23438,0.39063 0.52735,0.72266 0.85938,1.01563 0.33203,0.29297 0.70312,0.54687 1.11328,0.72265 0.41016,0.19532 0.82031,0.33203 1.26953,0.42969 0.42969,0.0977 0.85938,0.15625 1.30859,0.15625 0.95704,0 1.875,-0.21484 2.77344,-0.625 0.87891,-0.41016 1.67969,-0.89844 2.40235,-1.50391 1.64062,-1.28906 3.16406,-2.73437 4.57031,-4.3164 1.85547,-1.97266 3.51562,-4.1211 4.9414,-6.44531 0.66407,-1.07422 1.21094,-2.16797 1.64063,-3.30079 0.42969,-1.11328 0.70312,-2.30468 0.80078,-3.57421 0.17578,-2.08985 -0.50781,-3.82813 -2.05078,-5.25391 -0.48828,-0.44922 -1.01563,-0.83984 -1.60156,-1.15234 -0.60547,-0.3125 -1.21094,-0.56641 -1.85547,-0.78125 -0.64453,-0.19532 -1.3086,-0.33204 -1.97266,-0.42969 -0.68359,-0.0977 -1.34765,-0.13672 -1.99219,-0.13672 -1.69921,0 -3.3789,0.27344 -5.01953,0.80078 -1.64062,0.54688 -3.14453,1.32813 -4.51172,2.34375 -0.37109,0.25391 -0.70312,0.56641 -0.97656,0.95703 -0.21484,0.29297 -0.17578,0.58594 0.0781,0.87891 0.23437,0.27344 0.52734,0.46875 0.89843,0.5664 0.48829,0.19532 1.01563,0.29297 1.54297,0.29297 0.39063,0 0.76172,-0.0391 1.11328,-0.13672 z m -0.17578,17.12891 c 0.0977,-0.54687 0.21485,-1.09375 0.3125,-1.62109 0.0977,-0.52735 0.21485,-1.03516 0.35157,-1.54297 v -0.0391 l 0.0195,-0.0781 v -0.0391 c 1.28906,-5.3125 3.00781,-10.48828 5.15625,-15.52735 0.0586,-0.17578 0.19531,-0.27343 0.37109,-0.3125 0.76172,-0.21484 1.52344,-0.35156 2.32422,-0.41015 0.0977,-0.0195 0.19531,-0.0195 0.29297,-0.0195 0.0977,0.0195 0.19531,0.0195 0.29297,0.0391 0.0586,0.0195 0.13672,0.0195 0.23437,0.0195 0.17578,0.0586 0.29297,0.13672 0.35156,0.23438 0.72266,0.99609 1.01563,2.10937 0.85938,3.30078 -0.0977,1.07422 -0.35156,2.10937 -0.76172,3.10547 -0.44922,1.09375 -1.03516,2.22656 -1.75781,3.3789 -0.74219,1.15235 -1.54297,2.28516 -2.42188,3.39844 -0.8789,1.11328 -1.77734,2.16797 -2.69531,3.16406 -0.9375,1.01563 -1.81641,1.9336 -2.63672,2.73438 0,0 -0.0195,0.0195 -0.0391,0.0391 -0.0195,0.0195 -0.0391,0.0391 -0.0391,0.0586 -0.0195,0.0195 -0.0391,0.0195 -0.0586,0.0391 -0.0195,0.0195 -0.0781,0.0586 -0.15625,0.0781 z m 24.72657,0.60547 c -0.0195,0.27344 -0.0391,0.52734 -0.0391,0.74219 0,0.21484 0.0195,0.42968 0.0781,0.60547 0.0976,0.33203 0.29297,0.68359 0.625,1.01562 0.95703,0.91797 2.08984,1.40625 3.39844,1.44531 0.3125,0.0195 0.60546,-0.0391 0.85937,-0.19531 0.13672,-0.0781 0.25391,-0.19531 0.3125,-0.33203 0.0586,-0.13672 0.0391,-0.27344 -0.0391,-0.44922 -0.0977,-0.21484 -0.13672,-0.37109 -0.11719,-0.50781 0,-0.0977 0,-0.17578 0.0195,-0.27344 0.0195,-0.0781 0.0391,-0.15625 0.0586,-0.23437 v -0.0586 l 0.17578,-0.74219 c 0.99609,-3.67187 2.10937,-7.28515 3.33984,-10.82031 1.23047,-3.53515 2.55859,-7.05078 3.96484,-10.58594 0.21485,-0.5664 0.11719,-1.05468 -0.29296,-1.44531 -0.97657,-0.91797 -2.12891,-1.34765 -3.4375,-1.28906 -0.39063,0.0195 -0.70313,0.21484 -0.9375,0.58594 -0.25391,0.41015 -0.48829,0.83984 -0.70313,1.25 -0.21484,0.42968 -0.42969,0.85937 -0.64453,1.30859 -2.1875,4.60938 -3.98438,9.375 -5.39063,14.29688 -0.5664,1.85546 -0.97656,3.75 -1.23046,5.68359 z m 20.13671,-17.75391 c -0.0195,0.0195 -0.0391,0.0781 -0.0586,0.13672 -0.0195,0.0586 -0.0391,0.0977 -0.0586,0.11719 -0.6836,1.26953 -1.36719,2.61719 -2.03125,4.04297 -0.66407,1.42578 -1.26953,2.89062 -1.83594,4.375 -0.56641,1.48437 -1.05469,2.96875 -1.46484,4.47265 -0.42969,1.50391 -0.74219,2.98829 -0.95704,4.41407 -0.0781,0.52734 -0.0586,1.01562 0.0586,1.46484 0.0586,0.27344 0.19531,0.52734 0.37109,0.74219 0.17578,0.21484 0.39063,0.41015 0.625,0.58594 0.23438,0.17578 0.48828,0.33203 0.76172,0.46875 0.27344,0.13671 0.52734,0.23437 0.78125,0.33203 0.39063,0.17578 0.80078,0.23437 1.25,0.17578 0.21484,-0.0586 0.39063,-0.11719 0.56641,-0.17578 0.15625,-0.0586 0.29297,-0.13672 0.41015,-0.23438 0.0977,-0.0977 0.19532,-0.21484 0.25391,-0.37109 0.0586,-0.13672 0.0781,-0.33203 0.0977,-0.56641 0.0195,-0.2539 0.0586,-0.50781 0.0976,-0.76172 0.0195,-0.23437 0.0586,-0.46875 0.11719,-0.70312 0.3125,-1.66016 0.72266,-3.30078 1.23047,-4.88281 0.48828,-1.58204 1.03515,-3.16407 1.64062,-4.7461 0.0195,-0.0586 0.0586,-0.11719 0.0781,-0.17578 0.0195,-0.0586 0.0391,-0.11719 0.0586,-0.17578 l 0.23438,-0.72266 c 0.0195,-0.0586 0.0586,-0.11718 0.0781,-0.17578 0.0195,-0.0586 0.0391,-0.11719 0.0586,-0.17578 l 0.35156,-0.99609 c 0.21484,-0.66407 0.44922,-1.3086 0.70312,-1.95313 0.25391,-0.625 0.50782,-1.25 0.80078,-1.875 0.19532,-0.41015 0.39063,-0.82031 0.58594,-1.23047 0.19531,-0.41015 0.39063,-0.82031 0.56641,-1.23047 0.0976,-0.19531 0.17578,-0.39062 0.27344,-0.58593 0.0781,-0.19532 0.15625,-0.39063 0.2539,-0.56641 v -0.0195 c 0.0195,-0.0195 0.0391,-0.0586 0.0586,-0.0781 0,-0.0195 0.0195,-0.0586 0.0391,-0.0781 0.0195,-0.0391 0.0781,-0.0781 0.17578,-0.0977 0.48828,-0.0977 0.97656,-0.17578 1.46484,-0.23437 0.48828,-0.0586 0.95703,-0.11719 1.42578,-0.15625 0.91797,-0.0977 1.69922,-0.0977 2.34375,-0.0195 0.54688,0.0586 0.80079,-0.17578 0.76172,-0.70313 -0.0586,-0.50781 -0.23437,-0.99609 -0.54687,-1.46484 -0.3125,-0.46875 -0.70313,-0.82031 -1.17188,-1.03516 -0.76172,-0.2539 -1.91406,-0.39062 -3.49609,-0.39062 -1.52344,0.0586 -3.02734,0.17578 -4.51172,0.35156 -1.48437,0.19531 -2.96875,0.46875 -4.43359,0.80078 -0.0781,0.0195 -0.13672,0.0391 -0.15625,0.0391 -0.17578,0.0391 -0.42969,0.0977 -0.78125,0.19532 -0.35157,0.0977 -0.70313,0.19531 -1.07422,0.33203 -0.3711,0.13672 -0.70313,0.27343 -0.9961,0.42968 -0.29296,0.17579 -0.48828,0.33204 -0.5664,0.50782 -0.0977,0.17578 -0.0977,0.41015 -0.0195,0.72265 0.19531,0.87891 0.64453,1.66016 1.32812,2.30469 0.33203,0.29297 0.74219,0.42969 1.19141,0.39063 0.58594,-0.0586 1.11328,-0.15625 1.5625,-0.29297 0.44922,-0.13672 0.95703,-0.3125 1.5039,-0.52735 z"
       id="text1"
       transform="matrix(0.73284191,0,0,0.73492823,3.969764,-79.963943)"
       aria-label="find it" />
  </g>
</svg>
