<?xml version="1.0" encoding="UTF-8" standalone="no"?>
<svg
   height="30"
   width="46"
   viewBox="1338.7 1396.4 8.1367519 23.5373"
   version="1.1"
   id="svg6"
   sodipodi:docname="mercadolibre.svg"
   inkscape:version="1.3.2 (091e20e, 2023-11-25, custom)"
   xmlns:inkscape="http://www.inkscape.org/namespaces/inkscape"
   xmlns:sodipodi="http://sodipodi.sourceforge.net/DTD/sodipodi-0.dtd"
   xmlns="http://www.w3.org/2000/svg"
   xmlns:svg="http://www.w3.org/2000/svg">
  <defs
     id="defs6" />
  <sodipodi:namedview
     id="namedview6"
     pagecolor="#ffffff"
     bordercolor="#666666"
     borderopacity="1.0"
     inkscape:showpageshadow="2"
     inkscape:pageopacity="0.0"
     inkscape:pagecheckerboard="0"
     inkscape:deskcolor="#d1d1d1"
     showgrid="false"
     inkscape:zoom="7.7631462"
     inkscape:cx="20.288166"
     inkscape:cy="16.037312"
     inkscape:window-width="1366"
     inkscape:window-height="745"
     inkscape:window-x="-8"
     inkscape:window-y="-8"
     inkscape:window-maximized="1"
     inkscape:current-layer="svg6" />
  <path
     d="m 1360.0703,1407.5247 c 0,-6.1168 -7.7444,-11.1247 -17.3068,-11.1247 -9.5624,0 -17.3068,5.0079 -17.3068,11.1247 v 0.6439 c 0,6.5103 6.7628,11.7687 17.3068,11.7687 10.5805,0 17.3068,-5.2584 17.3068,-11.7687 z"
     fill="#2d3277"
     id="path1"
     sodipodi:nodetypes="sssssss"
     style="stroke-width:0.360637" />
  <path
     d="m 1359.4522,1407.5247 c 0,5.7591 -7.4536,10.4451 -16.616,10.4451 -9.1624,0 -16.6159,-4.686 -16.6159,-10.4451 0,-5.7592 7.4535,-10.4451 16.6159,-10.4451 9.1624,0 16.616,4.6859 16.616,10.4451 z"
     fill="#ffe600"
     id="path2"
     style="stroke-width:0.360637" />
  <g
     fill="#ffffff"
     id="g5"
     transform="matrix(0.36358816,0,0,0.35770969,828.68813,896.89417)">
    <path
       d="m 1398.9,1418.3 c 0,0 -0.5,0.5 -0.2,0.9 0.7,0.9 2.9,1.4 5.2,0.9 1.3,-0.3 3.1,-1.7 4.7,-3 1.8,-1.4 3.6,-2.9 5.4,-3.4 1.9,-0.6 3.1,-0.3 3.9,-0.1 0.9,0.3 1.9,0.9 3.6,2.1 3.1,2.3 15.7,13.3 17.9,15.2 1.7,-0.8 9.5,-4.1 20.1,-6.5 -0.9,-5.6 -4.3,-10.8 -9.5,-15 -7.2,3 -16.1,4.6 -24.8,0.4 0,0 -4.7,-2.2 -9.4,-2.1 -6.9,0.2 -9.8,3.1 -13,6.3 z"
       id="path3" />
    <path
       d="m 1438.9,1432.1 c -0.1,-0.1 -14.8,-12.9 -18.1,-15.4 -1.9,-1.4 -3,-1.8 -4.1,-2 -0.6,-0.1 -1.4,0 -2,0.2 -1.5,0.4 -3.6,1.8 -5.4,3.2 -1.9,1.5 -3.6,2.9 -5.2,3.2 -2.1,0.5 -4.6,-0.1 -5.7,-0.9 -0.5,-0.3 -0.8,-0.7 -1,-1.1 -0.4,-1 0.4,-1.8 0.5,-1.9 l 4,-4.4 1.4,-1.4 c -1.3,0.2 -2.5,0.5 -3.7,0.8 -1.5,0.4 -2.9,0.8 -4.3,0.8 -0.6,0 -3.8,-0.5 -4.4,-0.7 -3.7,-1 -6.9,-2 -11.7,-4.2 -5.7,4.3 -9.6,9.6 -10.7,15.5 0.8,0.2 2.2,0.6 2.7,0.7 13,2.9 17,5.9 17.8,6.5 0.8,-0.9 1.9,-1.4 3.2,-1.4 1.4,0 2.7,0.7 3.5,1.8 0.7,-0.6 1.8,-1.1 3.1,-1.1 0.6,0 1.2,0.1 1.9,0.3 1.5,0.5 2.2,1.5 2.6,2.4 0.5,-0.2 1.1,-0.4 1.8,-0.4 0.7,0 1.4,0.2 2.2,0.5 2.4,1 2.8,3.4 2.6,5.2 h 0.5 c 2.9,0 5.2,2.3 5.2,5.2 0,0.9 -0.2,1.7 -0.6,2.4 0.8,0.4 2.7,1.4 4.5,1.2 1.4,-0.2 1.9,-0.6 2.1,-0.9 0.1,-0.2 0.3,-0.4 0.1,-0.6 l -3.7,-4.1 c 0,0 -0.6,-0.6 -0.4,-0.8 0.2,-0.2 0.6,0.1 0.9,0.3 1.9,1.6 4.1,3.9 4.1,3.9 0,0 0.2,0.3 1,0.5 0.7,0.1 2,0 2.9,-0.7 0.2,-0.2 0.5,-0.4 0.6,-0.6 0.9,-1.2 -0.1,-2.4 -0.1,-2.4 l -4.3,-4.8 c 0,0 -0.6,-0.6 -0.4,-0.8 0.2,-0.2 0.6,0.1 0.9,0.3 1.4,1.1 3.3,3.1 5.1,4.9 0.4,0.3 2,1.3 4.1,-0.1 1.3,-0.9 1.6,-1.9 1.5,-2.7 -0.1,-1 -0.9,-1.8 -0.9,-1.8 l -5.8,-5.9 c 0,0 -0.6,-0.5 -0.4,-0.8 0.2,-0.2 0.6,0.1 0.9,0.3 1.9,1.6 6.9,6.2 6.9,6.2 0.1,0 1.8,1.3 4,-0.1 0.8,-0.5 1.3,-1.2 1.3,-2.1 0.1,-1.3 -1,-2.2 -1,-2.2 z"
       id="path4" />
    <path
       d="m 1410.6,1439.6 c -0.9,0 -1.9,0.5 -2,0.5 -0.1,0 0,-0.4 0.1,-0.6 0.1,-0.2 1.3,-3.8 -1.6,-5.1 -2.2,-1 -3.6,0.1 -4,0.6 -0.1,0.1 -0.2,0.1 -0.2,0 0,-0.6 -0.3,-2.4 -2.3,-3 -2.8,-0.9 -4.5,1.1 -5,1.8 -0.2,-1.6 -1.5,-2.8 -3.2,-2.8 -1.8,0 -3.2,1.4 -3.2,3.2 0,1.8 1.4,3.2 3.2,3.2 0.9,0 1.6,-0.3 2.2,-0.9 v 0.1 c -0.1,0.8 -0.4,3.7 2.6,4.8 1.2,0.5 2.2,0.1 3.1,-0.5 0.3,-0.2 0.3,-0.1 0.3,0.1 -0.1,0.7 0,2.3 2.3,3.2 1.7,0.7 2.7,0 3.3,-0.6 0.3,-0.3 0.4,-0.2 0.4,0.2 0.1,2.1 1.9,3.8 4,3.8 2.2,0 4,-1.8 4,-4 0,-2.2 -1.8,-4 -4,-4 z"
       id="path5" />
  </g>
  <path
     d="m 1352.0713,1408.6336 c -1.6361,-1.395 -5.4174,-4.6502 -6.4718,-5.4014 -0.5817,-0.4293 -0.9817,-0.6797 -1.3453,-0.7512 -0.1455,-0.035 -0.3636,-0.1073 -0.6544,-0.1073 -0.2546,0 -0.5454,0.035 -0.8363,0.1431 -0.6545,0.2146 -1.3089,0.7154 -1.9634,1.2162 l -0.036,0.035 c -0.5817,0.465 -1.1998,0.93 -1.6725,1.0373 -0.2182,0.035 -0.4,0.072 -0.6182,0.072 -0.509,0 -0.9816,-0.1431 -1.1634,-0.3577 -0.036,-0.035 0,-0.1074 0.073,-0.1789 l 1.4543,-1.5381 c 1.1272,-1.109 2.1816,-2.1463 4.654,-2.2179 h 0.1091 c 1.527,0 3.0541,0.6797 3.2359,0.7513 1.4543,0.6796 2.9087,1.0373 4.3993,1.0373 1.5636,0 3.1633,-0.3934 4.8358,-1.1447 -0.1818,-0.143 -0.3999,-0.3219 -0.5817,-0.465 -1.4906,0.6439 -2.8723,0.93 -4.2541,0.93 -1.3816,0 -2.7632,-0.3219 -4.1084,-0.9658 -0.073,-0.035 -1.7452,-0.8226 -3.5268,-0.8226 h -0.1454 c -2.0725,0.035 -3.2361,0.7511 -3.9995,1.395 -0.7636,0 -1.4181,0.2146 -1.9998,0.3576 -0.509,0.1431 -0.9816,0.2504 -1.4179,0.2504 h -0.5455 c -0.509,0 -3.0541,-0.608 -5.0538,-1.395 -0.2181,0.1431 -0.4,0.2862 -0.6181,0.4293 2.1087,0.8584 4.6902,1.5023 5.4902,1.5739 0.2181,0 0.4726,0.035 0.7272,0.035 0.5454,0 1.0543,-0.1431 1.5997,-0.2862 0.3272,-0.072 0.6544,-0.1789 0.9817,-0.2504 l -0.2908,0.2861 -1.4544,1.574 c -0.1091,0.1073 -0.3635,0.4292 -0.2182,0.787 0.073,0.143 0.2182,0.2861 0.4,0.4291 0.3636,0.2147 0.9816,0.3935 1.5634,0.3935 0.2181,0 0.4363,-0.035 0.6181,-0.072 0.618,-0.1431 1.2725,-0.6438 1.927,-1.1804 0.5454,-0.4293 1.3089,-0.9659 1.8907,-1.1448 0.1818,-0.035 0.3636,-0.072 0.5454,-0.072 h 0.1454 c 0.3999,0.035 0.7635,0.1788 1.4544,0.6796 1.1998,0.8943 6.5445,5.473 6.5809,5.5087 0,0 0.3272,0.2862 0.3272,0.787 0,0.2504 -0.1818,0.5007 -0.4363,0.6797 -0.2181,0.1431 -0.4726,0.2146 -0.6908,0.2146 -0.3636,0 -0.6181,-0.1788 -0.6181,-0.1788 0,0 -1.8543,-1.6455 -2.5087,-2.2178 -0.1092,-0.1074 -0.2183,-0.1789 -0.3272,-0.1789 -0.073,0 -0.1091,0.035 -0.1455,0.072 -0.1091,0.1431 0,0.3219 0.1455,0.4292 l 2.1451,2.1105 c 0,0 0.2545,0.2504 0.2908,0.5724 0,0.3577 -0.1454,0.6439 -0.5089,0.8585 -0.2546,0.1789 -0.5091,0.2504 -0.7636,0.2504 -0.3272,0 -0.5454,-0.1431 -0.6181,-0.1788 l -0.3273,-0.2862 c -0.5453,-0.5366 -1.1271,-1.109 -1.5634,-1.4308 -0.1091,-0.072 -0.2182,-0.179 -0.3272,-0.179 -0.036,0 -0.1091,0 -0.1455,0.072 -0.036,0.035 -0.073,0.1429 0.036,0.3218 0.036,0.072 0.1091,0.1073 0.1091,0.1073 l 1.5635,1.717 c 0,0 0.3271,0.3935 0.036,0.7155 l -0.073,0.072 -0.1454,0.1431 c -0.2546,0.2147 -0.6182,0.2503 -0.7636,0.2503 h -0.2181 c -0.1454,-0.035 -0.2546,-0.072 -0.3273,-0.143 -0.073,-0.1073 -0.8726,-0.8585 -1.527,-1.395 -0.073,-0.072 -0.1819,-0.1431 -0.2909,-0.1431 -0.036,0 -0.1091,0.035 -0.1454,0.072 -0.1091,0.143 0.073,0.3577 0.1454,0.4291 l 1.3453,1.4309 c 0,0 0,0.035 -0.036,0.1074 -0.036,0.072 -0.218,0.2146 -0.6907,0.2861 h -0.1818 c -0.5091,0 -1.018,-0.2504 -1.309,-0.3935 0.1091,-0.2505 0.1819,-0.5366 0.1819,-0.8227 0,-1.0732 -0.8727,-1.9317 -1.9634,-1.9317 h -0.073 c 0.036,-0.5008 -0.036,-1.4308 -1.018,-1.8243 -0.2909,-0.1073 -0.5454,-0.1788 -0.8362,-0.1788 -0.2182,0 -0.4,0.035 -0.6181,0.1073 -0.2182,-0.3935 -0.5454,-0.6796 -0.9818,-0.8228 -0.2544,-0.072 -0.4726,-0.1073 -0.7272,-0.1073 -0.3999,0 -0.7635,0.1073 -1.0907,0.3578 a 1.6725055,1.6454646 0 0 0 -1.3089,-0.6081 c -0.4363,0 -0.8726,0.1788 -1.1635,0.4649 -0.3999,-0.3218 -2.0361,-1.3235 -6.4355,-2.325 -0.2182,-0.035 -0.6908,-0.1789 -0.9816,-0.2862 -0.036,0.2146 -0.073,0.465 -0.1091,0.7154 0,0 0.7998,0.1788 0.9816,0.2147 4.4722,0.9658 5.9629,2.0031 6.2174,2.1819 -0.073,0.2147 -0.1091,0.4293 -0.1091,0.6439 0,0.9301 0.7635,1.6455 1.6725,1.6455 0.1091,0 0.2182,0 0.3273,-0.035 0.1454,0.6797 0.5817,1.1804 1.2725,1.4308 0.2182,0.072 0.4,0.1074 0.5818,0.1074 0.1091,0 0.2545,0 0.3999,-0.035 0.1091,0.3218 0.3999,0.7153 1.0544,0.9657 0.2182,0.1073 0.4362,0.1431 0.6545,0.1431 0.1818,0 0.3636,-0.035 0.5089,-0.1073 0.291,0.7155 1.0181,1.2162 1.818,1.2162 0.5454,0 1.0544,-0.2147 1.418,-0.6081 0.3272,0.1789 0.9817,0.5008 1.6725,0.5008 h 0.2546 c 0.6907,-0.072 0.9816,-0.3577 1.127,-0.5366 0.036,-0.035 0.036,-0.072 0.073,-0.1073 0.1454,0.035 0.3272,0.072 0.5454,0.072 0.3636,0 0.7272,-0.1073 1.0907,-0.3935 0.3636,-0.2504 0.6181,-0.6081 0.6181,-0.9301 0.1091,0.035 0.2546,0.035 0.3635,0.035 0.3637,0 0.7636,-0.1072 1.1272,-0.3577 0.6909,-0.4292 0.8,-1.0374 0.8,-1.3951 0.109,0.035 0.2545,0.035 0.3636,0.035 0.3636,0 0.7271,-0.1073 1.0543,-0.322 0.4364,-0.2861 0.6909,-0.6795 0.7272,-1.1446 0.036,-0.3219 -0.073,-0.6439 -0.2181,-0.9301 1.1634,-0.5008 3.7813,-1.4308 6.9081,-2.1463 0,-0.2504 -0.036,-0.4649 -0.1091,-0.7153 -3.7449,0.787 -6.5446,1.9674 -7.2354,2.2893 z m -10.5076,5.9738 c -0.7272,0 -1.3089,-0.5724 -1.3453,-1.2877 0,-0.072 0,-0.2147 -0.1454,-0.2147 -0.073,0 -0.1091,0.035 -0.1819,0.072 -0.1453,0.1431 -0.3635,0.2861 -0.6544,0.2861 -0.1454,0 -0.2909,-0.035 -0.4363,-0.1073 -0.7636,-0.322 -0.7999,-0.8227 -0.7636,-1.0374 0,-0.072 0,-0.1073 -0.036,-0.1431 l -0.036,-0.035 h -0.036 c -0.036,0 -0.073,0 -0.1453,0.072 -0.2182,0.1431 -0.4364,0.2146 -0.6545,0.2146 -0.1091,0 -0.2545,-0.035 -0.3636,-0.072 -1.018,-0.3935 -0.9454,-1.3236 -0.8727,-1.6098 0,-0.072 0,-0.1072 -0.036,-0.143 l -0.073,-0.072 -0.073,0.072 c -0.2181,0.1789 -0.4727,0.2862 -0.7271,0.2862 -0.5818,0 -1.0545,-0.4651 -1.0545,-1.0374 0,-0.5724 0.4727,-1.0373 1.0545,-1.0373 0.509,0 0.9816,0.3934 1.0544,0.8942 l 0.036,0.2862 0.1455,-0.2504 c 0,-0.035 0.4363,-0.6796 1.2362,-0.6439 0.1455,0 0.2908,0.035 0.4726,0.072 0.6182,0.1789 0.7272,0.7512 0.7272,0.9659 0,0.1431 0.1091,0.1431 0.1091,0.1431 0.036,0 0.1091,-0.035 0.1091,-0.072 0.1091,-0.1073 0.3636,-0.3219 0.7636,-0.3219 0.1818,0 0.3635,0.035 0.5816,0.1431 0.9818,0.4292 0.5455,1.6454 0.5455,1.6812 -0.073,0.2146 -0.1091,0.2862 0,0.3577 h 0.073 c 0.036,0 0.1091,0 0.1818,-0.035 0.1454,-0.035 0.3272,-0.1073 0.5089,-0.1073 0.7272,0 1.3454,0.6081 1.3454,1.3235 0.036,0.787 -0.5818,1.3594 -1.3089,1.3594 z"
     fill="#2d3277"
     id="path6"
     style="stroke-width:0.360637" />
</svg>
